HIERARCHY
ROOT Hips
{
	OFFSET -3.958830 18.904000 13.208200
	CHANNELS 6 Xposition Yposition Zposition Zrotation Yrotation Xrotation 
	JOINT LHipJoint
	{
		OFFSET 0.000000 0.000000 0.000000
		CHANNELS 3 Zrotation Yrotation Xrotation
		JOINT LeftUpLeg
		{
			OFFSET 1.800000 -1.400000 0.085000
			CHANNELS 3 Zrotation Yrotation Xrotation
			JOINT LeftLeg
			{
				OFFSET 2.215000 -6.000000 0.000000
				CHANNELS 3 Zrotation Yrotation Xrotation
				JOINT LeftFoot
				{
					OFFSET 2.500000 -6.900000 0.000000
					CHANNELS 3 Zrotation Yrotation Xrotation
					JOINT LeftToeBase
					{
						OFFSET 0.200000 -0.500000 1.950000
						CHANNELS 3 Zrotation Yrotation Xrotation
						End Site
						{
							OFFSET 0.000000 0.000000 0.000000
						}
					}
				}
			}
		}
	}
	JOINT RHipJoint
	{
		OFFSET 0.000000 0.000000 0.000000
		CHANNELS 3 Zrotation Yrotation Xrotation
		JOINT RightUpLeg
		{
			OFFSET -1.800000 -1.400000 0.085000
			CHANNELS 3 Zrotation Yrotation Xrotation
			JOINT RightLeg
			{
				OFFSET -2.215000 -6.000000 0.000000
				CHANNELS 3 Zrotation Yrotation Xrotation
				JOINT RightFoot
				{
					OFFSET -2.500000 -6.900000 0.000000
					CHANNELS 3 Zrotation Yrotation Xrotation
					JOINT RightToeBase
					{
						OFFSET -0.200000 -0.500000 1.950000
						CHANNELS 3 Zrotation Yrotation Xrotation
						End Site
						{
							OFFSET 0.000000 0.000000 0.000000
						}
					}
				}
			}
		}
	}
	JOINT LowerBack
	{
		OFFSET 0.000000 0.000000 0.000000
		CHANNELS 3 Zrotation Yrotation Xrotation
		JOINT Spine
		{
			OFFSET -0.087000 1.940000 -0.288900
			CHANNELS 3 Zrotation Yrotation Xrotation
			JOINT Spine1
			{
				OFFSET 0.000000 1.950000 0.060000
				CHANNELS 3 Zrotation Yrotation Xrotation
				JOINT Neck
				{
					OFFSET 0.000000 0.000000 0.000000
					CHANNELS 3 Zrotation Yrotation Xrotation
					JOINT Neck1
					{
						OFFSET 0.000000 1.600000 0.340000
						CHANNELS 3 Zrotation Yrotation Xrotation
						JOINT Head
						{
							OFFSET 0.000000 1.667000 -0.240000
							CHANNELS 3 Zrotation Yrotation Xrotation
							End Site
							{
								OFFSET 0.000000 0.000000 0.000000
							}
						}
					}
				}
				JOINT LeftShoulder
				{
					OFFSET 0.000000 0.000000 0.000000
					CHANNELS 3 Zrotation Yrotation Xrotation
					JOINT LeftArm
					{
						OFFSET 2.700000 1.550000 -0.730000
						CHANNELS 3 Zrotation Yrotation Xrotation
						JOINT LeftForeArm
						{
							OFFSET 5.450000 0.000000 0.000000
							CHANNELS 3 Zrotation Yrotation Xrotation
							JOINT LeftHand
							{
								OFFSET 3.450000 0.000000 0.000000
								CHANNELS 3 Zrotation Yrotation Xrotation
								JOINT LeftHandIndex1
								{
									OFFSET 0.750000 0.000000 0.000000
									CHANNELS 3 Zrotation Yrotation Xrotation
									End Site
									{
										OFFSET 0.000000 0.000000 0.000000
									}
								}
							}
						}
					}
				}
				JOINT RightShoulder
				{
					OFFSET 0.000000 0.000000 0.000000
					CHANNELS 3 Zrotation Yrotation Xrotation
					JOINT RightArm
					{
						OFFSET -2.700000 1.550000 -0.730000
						CHANNELS 3 Zrotation Yrotation Xrotation
						JOINT RightForeArm
						{
							OFFSET -5.450000 0.000000 0.000000
							CHANNELS 3 Zrotation Yrotation Xrotation
							JOINT RightHand
							{
								OFFSET -3.450000 0.000000 0.000000
								CHANNELS 3 Zrotation Yrotation Xrotation
								JOINT RightHandIndex1
								{
									OFFSET -0.750000 0.000000 0.000000
									CHANNELS 3 Zrotation Yrotation Xrotation
									End Site
									{
										OFFSET 0.000000 0.000000 0.000000
									}
								}
							}
						}
					}
				}
			}
		}
	}
}
MOTION
Frames: 6
Frame Time: 0.016667
-0.162710 16.615000 -1.800950 -2.607438 -16.833935 0.112536 -15.051099 14.259971 2.945337 11.007283 -0.979370 -12.305146 -7.210666 6.619358 14.139088 -0.497223 4.932779 3.070111 -0.178970 -0.625840 -0.218570 18.147907 -10.986968 2.306591 -12.436296 0.786991 -14.090597 2.320474 -4.467239 12.778641 0.013312 -3.121983 3.442113 -0.261260 0.669700 0.212090 -3.269550 -3.335574 -7.128946 9.675244 -0.773011 8.115934 0.584122 0.085540 -0.276439 -0.592684 -6.072697 -8.880101 -14.535113 10.464448 33.252057 0.562740 7.058610 -0.527600 -18.450444 -1.535401 2.875189 -46.516203 -11.229323 -3.157062 95.401592 -33.656951 -41.305051 -4.071682 2.606013 0.513910 0.328050 -0.339930 0.103950 20.166490 4.827131 5.086002 50.258044 0.125851 -11.656385 -9.321336 43.678081 -3.241215 1.727943 -1.202054 -0.436370 0.335830 0.471120 -0.226720 
-0.205660 16.652890 -1.782970 -2.832568 -15.855415 0.504332 -15.034760 14.178611 2.961548 11.863110 -0.841562 -12.362294 -7.519587 6.535557 12.772206 -0.452478 4.924792 3.098653 -0.257610 -0.728000 -0.280780 18.168284 -10.967483 2.348512 -12.000737 0.898259 -13.452350 2.644495 -4.457153 11.848461 0.034816 -3.151235 3.467496 -0.330180 0.732350 0.223050 -3.349451 -3.163753 -7.181839 10.999379 -1.615756 7.455323 -2.132770 -0.814417 -0.853105 1.622283 -6.312795 -9.357811 -14.137522 11.880776 33.033446 0.209070 8.230950 2.159580 -19.969204 -0.206956 2.707517 -50.517448 -6.926582 -4.431407 103.256892 -30.750434 -43.496443 -4.119031 2.699917 0.489140 0.365410 -0.378880 0.105930 17.215986 4.104298 5.801489 51.523049 0.633790 -12.533177 -4.876149 60.967850 -2.915064 1.625306 -1.314823 -0.447030 0.324880 0.507330 -0.207800 
-0.258710 16.695370 -1.770040 -2.596802 -15.011902 0.800094 -15.050151 14.120747 2.977862 12.323425 -0.795613 -12.790915 -7.744957 6.550325 12.299033 -0.453531 4.965732 3.103337 -0.333700 -0.822920 -0.358330 18.151793 -10.951706 2.391066 -11.895848 1.002920 -13.100942 3.022257 -4.449493 11.043100 0.073942 -3.188713 3.487695 -0.369240 0.812360 0.217300 -3.317684 -3.033225 -7.232879 10.983614 -1.994098 7.024322 -3.701469 -1.280947 -1.369351 3.353266 -6.765818 -9.716097 -14.160647 13.258254 32.024937 0.367150 8.512550 4.134730 -20.741224 1.495722 2.324364 -55.005258 -3.293969 -5.431429 106.333807 -29.773754 -44.083387 -4.160979 2.734326 0.470060 0.407830 -0.436830 0.108620 14.576453 3.376628 6.595067 51.115212 0.851326 -11.408114 0.772842 76.442152 -1.239913 1.579655 -1.478456 -0.485360 0.346240 0.559720 -0.192100 
-0.312310 16.739020 -1.769300 -1.996011 -13.863158 1.267702 -15.077000 14.017353 3.002066 12.496003 -0.879688 -14.121274 -8.276463 6.722669 12.589527 -0.418506 4.999712 3.110485 -0.383170 -0.855530 -0.447070 18.129740 -10.934793 2.428260 -12.109515 1.133533 -13.228068 3.498961 -4.405268 10.288435 0.123538 -3.234265 3.503394 -0.376380 0.905620 0.208760 -3.268601 -2.849451 -7.250169 10.263355 -2.075300 6.595137 -4.447489 -1.451228 -1.922165 4.468160 -7.400851 -9.792559 -14.561818 14.242329 29.874087 0.867700 7.666180 6.242310 -20.685634 3.654762 1.742708 -59.903953 -0.714044 -5.904541 107.744717 -29.276986 -43.651090 -4.198351 2.792529 0.388110 0.463900 -0.505540 0.134850 12.360574 2.338141 7.120907 48.844586 0.669007 -8.788086 -175.063632 88.982641 -179.414302 1.587181 -1.674324 -0.491520 0.367950 0.583780 -0.139510 
-0.362960 16.797250 -1.790730 -1.010897 -11.822135 1.509180 -15.115254 13.963768 3.058010 12.036498 -1.176530 -16.223337 -8.353509 6.813557 13.609248 -0.424584 4.958966 3.131444 -0.410630 -0.870940 -0.519350 18.077822 -10.951656 2.455512 -12.717162 1.183604 -13.413872 4.273657 -4.544695 10.301771 0.158324 -3.308279 3.495548 -0.370870 0.970950 0.187710 -3.162253 -2.741750 -7.310501 8.603200 -1.974374 7.039811 -4.537040 -1.272139 -3.029276 5.152342 -8.095194 -9.899941 -15.433835 14.295293 28.195946 1.847350 5.352630 7.053050 -20.676545 5.796290 1.135505 -63.848216 1.354473 -5.952136 108.078470 -31.136883 -45.499472 -4.198603 2.776161 0.339840 0.485920 -0.556390 0.160590 11.097236 1.376425 7.618577 44.414235 -0.414624 -5.126131 -162.188026 74.467686 -164.862961 1.701412 -1.866673 -0.503090 0.403320 0.601500 -0.095670 
-0.410140 16.871250 -1.806080 0.175999 -10.624785 1.446478 -15.157120 13.968606 3.157026 11.358292 -1.526067 -18.226392 -8.344202 7.022283 15.266623 -0.419915 4.937724 3.123446 -0.418190 -0.883670 -0.550070 17.997545 -10.981006 2.514634 -13.536477 1.197924 -13.237131 4.794379 -4.603922 9.897794 0.158003 -3.324141 3.500422 -0.387750 0.965710 0.159520 -2.990603 -2.707607 -7.491483 6.580722 -1.290392 8.571244 -4.511297 -0.327731 -5.619402 6.087286 -8.981641 -10.241063 -17.076232 13.962214 28.369838 2.975890 2.707660 6.674370 -21.021004 8.454519 0.384670 -66.309054 3.868141 -5.896250 107.521779 -35.393005 -49.710980 -4.136516 2.671778 0.359750 0.444120 -0.555070 0.170820 9.741105 0.346654 8.202721 39.260153 -2.346945 -2.721373 -158.919018 60.185653 -154.632556 1.802231 -1.869807 -0.503830 0.424630 0.605270 -0.076050 
